<svg xmlns="http://www.w3.org/2000/svg" width="186" height="20" viewBox="0 0 186 20" style="background:#000">
  <g id="Logos-/-Dark-/-Main" fill="none" fill-rule="evenodd" stroke="none" stroke-width="1">
    <rect width="186" height="20" fill="#000"/>
    <g id="Marubeni" fill="#FFF" fill-rule="nonzero">
      <path id="Shape" d="M0.328593987,0.349411269 L10.7347003,0.349411269 C12.0961115,0.349411269 14.0821064,0.767610737 14.7800107,2.27521077 C15.477915,3.7828108 18.0884935,9.29725056 18.0884935,9.29725056 C18.0884935,9.29725056 20.9946177,3.26639782 21.5096729,2.23855043 C22.0247281,1.20844005 23.2376876,0.349411269 24.929042,0.349411269 L29.9691602,0.349411269 C32.3955318,0.349411269 34.2701879,1.64700637 34.2701879,4.48162031 C34.2701879,7.31351866 34.3444138,11.9069239 34.3444138,14.889537 C34.3444138,17.8662663 34.8965819,18.1980198 35.1536569,18.4922077 C35.4093741,18.7868482 35.1889595,18.97015 34.9314319,18.97015 L24.7063643,18.97015 C24.3049109,18.97015 24.265535,18.7126224 24.265535,18.4922077 L24.265535,10.8442265 C24.265535,10.8442265 21.5467859,16.539705 20.9575048,17.7549275 C20.3704867,18.97015 19.0461884,19.0792258 17.8332289,19.0792258 C16.6202694,19.0792258 15.4417073,19.0421129 14.70669,17.5345128 C13.9716728,16.0269128 11.4335098,10.7351507 11.4335098,10.7351507 L11.4335098,15.8087611 C11.4335098,17.3512111 12.0965641,18.224723 12.3912046,18.4532844 C12.6858452,18.6881821 12.5745064,18.97015 12.3522813,18.97015 L1.90906211,18.97015 C1.50534574,18.97015 1.39400692,18.7868482 1.39400692,18.4922077 C1.39400692,18.1975672 1.21296819,6.46489961 1.21296819,4.59295913 C1.21296819,2.71604008 0.512348299,1.39400475 0.143481884,0.949102065 C-0.223121546,0.508272755 0.329046584,0.349411269 0.329046584,0.349411269 M45.7064045,9.33662648 C45.1542364,9.85122907 44.7070708,10.3332447 44.8247459,12.6423937 C44.8967088,14.0802938 45.8915166,14.887274 47.0678158,14.887274 C47.9494744,14.887274 48.9442823,14.176697 48.9442823,13.1221463 L48.9442823,9.11394884 C48.9442823,8.78038498 48.7569072,8.63600659 48.46634,8.67130914 C46.9546666,8.85868423 46.2581201,8.82157129 45.7064045,9.33662648 M42.0643579,4.85863346 L57.4019592,4.85863346 C57.7685626,4.85863346 58.135166,4.99848588 58.135166,5.39993927 L58.135166,14.6673119 C58.135166,17.1307965 58.7239945,18.0142655 58.9444092,18.2699827 C59.1648238,18.5275103 59.055748,18.97015 58.6502212,18.97015 L51.922822,18.97015 C50.1205814,18.97015 49.4941874,18.2306067 49.0533581,17.0176472 C46.8474012,19.1557147 45.0822735,19.114585 43.0573553,19.114585 C37.5039922,19.114585 35.4152579,15.8123819 35.4831474,11.0234549 C35.5451532,6.65861105 39.1849369,4.85863346 42.0643579,4.85863346 M60.7860257,4.85863346 L70.7866052,4.85863346 C74.3910863,4.85863346 76.5993062,6.54546184 76.9659097,9.03791257 C77.1863243,10.5477756 77.0419459,11.3180954 77.0030226,11.6104729 C76.9659097,11.9069239 76.7450424,12.0182627 76.4857044,12.0924886 C76.2322502,12.1626411 71.0092828,13.8576162 70.7513026,13.9300317 C70.4919646,14.003805 70.27155,13.9300317 70.3828888,13.5634283 C70.491512,13.1945618 71.1568294,12.3106402 71.117906,10.6568514 C71.0807931,9.00261002 70.5290776,8.85642125 70.2362474,8.67130914 C69.9397965,8.48800743 69.5754561,8.41785492 69.5360801,8.67130914 C69.5012302,8.93064713 69.4270043,9.07276253 69.4270043,9.33662648 C69.4270043,9.5900807 69.3527784,12.3106402 69.3527784,14.8877266 C69.3527784,17.4584766 69.8325311,17.9260091 69.9791724,18.3070956 C70.1271716,18.6881821 70.1624741,18.97015 69.6845319,18.97015 L60.7860257,18.97015 C60.343386,18.97015 60.2709705,18.7126224 60.2709705,18.2699827 L60.2709705,5.32571339 C60.2709705,5.07044878 60.4520092,4.85863346 60.7860257,4.85863346"/>
      <path id="Shape" d="M76.7083821,4.85863346 L82.8505736,4.85863346 C85.5697754,4.85863346 86.5645832,5.76473231 86.5645832,8.59708326 L86.5645832,15.0728387 C86.5645832,16.3953266 87.1167513,16.6877042 87.8146556,16.6877042 C89.4317841,16.6877042 90.8674212,15.2914429 90.8674212,13.744467 L90.8674212,8.08429106 C90.8674212,6.53912549 90.3876686,5.62035393 90.2043669,5.43297884 C90.0210652,5.24967712 89.9816892,4.85818087 90.352366,4.85818087 L99.3250981,4.85818087 C99.8750033,4.85818087 100.023455,5.03152545 100.023455,5.51127809 C100.023455,5.98922034 100.058305,17.4584766 100.058305,17.9404922 C100.058305,18.4157188 100.097681,18.97015 99.399324,18.97015 L83.2914029,18.97015 C79.9444494,18.97015 77.4456623,17.1656464 77.4456623,13.1945618 L77.4456623,8.34091346 C77.4456623,6.24222197 76.6712691,5.73124015 76.4508545,5.51082549 C76.2327028,5.29041084 76.2327028,4.85818087 76.7083821,4.85818087 M174.436257,18.97015 L168.295876,18.97015 C165.574864,18.97015 164.340632,18.0658615 164.340632,15.2335106 L164.340632,8.75956552 C164.340632,7.43119383 164.031961,7.14062667 163.331342,7.14062667 C161.712403,7.14062667 160.153207,8.53734048 160.153207,10.0861268 L160.153207,15.7467554 C160.153207,17.2892053 160.756971,18.2079769 160.940273,18.3935416 C161.125837,18.5791063 161.160687,18.97015 160.793631,18.97015 L151.821352,18.97015 C151.267373,18.97015 151.122995,18.794995 151.122995,18.3193157 C151.122995,17.8436365 151.085882,6.36804389 151.085882,5.88829125 C151.085882,5.41261198 151.048769,4.85863346 151.747126,4.85863346 L167.855047,4.85863346 C171.199737,4.85863346 173.496666,6.65861105 173.496666,10.6319586 L173.496666,15.4892278 C173.496666,17.5838459 174.475181,18.0989011 174.693332,18.3193157 C174.91601,18.5415408 174.91601,18.97015 174.435805,18.97015 M184.934693,15.7444924 C184.934693,17.287395 185.579644,18.2061665 185.764756,18.3912786 C185.948058,18.5768433 185.98336,18.9683396 185.62083,18.9683396 L176.645835,18.9683396 C176.094119,18.9683396 175.945668,18.7931846 175.945668,18.3170527 L175.945668,8.43822178 C175.945668,6.5517982 174.957196,5.47416515 174.761222,5.29901018 C174.5657,5.13019156 174.58833,4.85863346 174.925967,4.85863346 L184.168447,4.85863346 C184.60294,4.85863346 184.92021,5.12204482 184.92021,5.60813381 C184.92021,6.10055916 184.934693,14.2015898 184.934693,15.7444924 M110.872201,13.3407506 C110.872201,14.4428239 111.716747,15.2190275 112.895309,15.2190275 C115.136116,15.2190275 115.393643,13.4561628 115.393643,11.7236222 C115.393643,9.99334448 114.695286,8.74553502 113.261912,8.74553502 L110.872201,8.74553502 L110.872201,13.3407506 Z M101.016,0.347600881 L110.060695,0.347600881 C110.614673,0.347600881 110.872201,0.543122711 110.872201,1.13240378 L110.872201,4.25894267 C110.872201,4.55132022 110.981729,4.85863346 111.350143,4.85863346 L117.123921,4.85863346 C121.572948,4.85863346 124.695866,6.38886334 124.990054,10.7681902 C125.286957,15.1429912 123.410491,18.086681 119.550293,18.8588111 C115.690094,19.6291309 112.674894,17.9771525 111.016579,16.6877042 C110.835541,18.2699827 109.401714,18.9683396 107.564171,18.9683396 L102.633128,18.9683396 C102.118073,18.9683396 101.714357,18.8216982 101.714357,18.2306067 L101.714357,5.62080652 C101.714357,2.82375813 101.125528,1.60853564 100.758472,1.09755383 C100.391869,0.584761619 100.572908,0.348053478 101.016452,0.348053478 M135.657761,9.00261002 L135.657761,9.81230575 C135.657761,10.2178325 135.952402,10.3273609 136.135703,10.4015868 C136.552092,10.5681424 138.193661,10.7351507 138.708716,10.7351507 C139.225582,10.7351507 140.033015,10.7351507 140.033015,9.81185315 C140.033015,8.8917238 139.334658,8.63600659 138.599188,8.63600659 L136.06193,8.63600659 C135.80395,8.63600659 135.658214,8.82157129 135.658214,9.00261002 M130.986509,4.85863346 L143.49176,4.85863346 C146.737784,4.85863346 149.238382,5.69457981 149.189048,9.17595461 L149.189048,12.2653806 C149.189048,12.8030656 148.894408,13.0483731 148.453579,13.0483731 L139.285325,13.0483731 C138.059692,13.0483731 137.618863,12.6075438 137.128701,12.2160475 C136.636275,11.8222883 135.657761,11.087271 135.657761,11.087271 L135.657761,13.4394167 C135.657761,14.975983 136.636275,15.8906811 137.717982,15.8906811 C139.186659,15.8906811 139.594448,15.4150019 140.266102,14.5211231 C140.414101,14.3251487 140.610076,14.2242196 140.755812,14.2242196 L148.552245,14.2242196 C148.748219,14.2242196 149.04467,14.3726714 149.04467,14.6673119 C149.04467,16.6279614 148.346313,18.97015 143.098,18.97015 L131.624671,18.97015 C128.33746,18.97015 126.487697,17.1656464 126.487697,13.394157 L126.487697,9.81230575 C126.487697,7.09944036 127.950037,4.85863346 130.986509,4.85863346 M180.201436,0.0280675207 C176.965368,0.0280675207 175.867368,0.714204312 175.867368,2.06339546 C175.867368,3.41439699 176.965368,4.04893774 180.201436,4.04893774 C183.783287,4.04893774 184.640053,3.43340605 184.640053,2.06339546 C184.640053,0.689311486 183.635288,0.0280675207 180.201436,0.0280675207"/>
    </g>
  </g>
</svg>
